<?xml version="1.0" encoding="UTF-8" standalone="no"?>
<!-- Created with Inkscape (http://www.inkscape.org/) -->

<svg
   xmlns:dc="http://purl.org/dc/elements/1.1/"
   xmlns:cc="http://creativecommons.org/ns#"
   xmlns:rdf="http://www.w3.org/1999/02/22-rdf-syntax-ns#"
   xmlns:svg="http://www.w3.org/2000/svg"
   xmlns="http://www.w3.org/2000/svg"
   xmlns:xlink="http://www.w3.org/1999/xlink"
   xmlns:sodipodi="http://sodipodi.sourceforge.net/DTD/sodipodi-0.dtd"
   xmlns:inkscape="http://www.inkscape.org/namespaces/inkscape"
   width="900"
   height="650"
   viewBox="0 0 900.00001 650.00001"
   id="svg4155"
   version="1.1"
   inkscape:version="0.91 r13725"
   inkscape:export-filename="/home/nicolas/Documents/Ecole/ProjetPI/Web/SiteVitrine/img/portfolio/signal.png"
   inkscape:export-xdpi="90"
   inkscape:export-ydpi="90"
   sodipodi:docname="signal.svg">
  <defs
     id="defs4157">
    <linearGradient
       id="linearGradient2795">
      <stop
         id="stop2797"
         offset="0"
         style="stop-color:#b8b8b8;stop-opacity:0.49803922;" />
      <stop
         id="stop2799"
         offset="1"
         style="stop-color:#7f7f7f;stop-opacity:0;" />
    </linearGradient>
    <linearGradient
       id="linearGradient2787">
      <stop
         id="stop2789"
         offset="0"
         style="stop-color:#7f7f7f;stop-opacity:0.5;" />
      <stop
         id="stop2791"
         offset="1"
         style="stop-color:#7f7f7f;stop-opacity:0;" />
    </linearGradient>
    <linearGradient
       id="linearGradient3676">
      <stop
         id="stop3678"
         offset="0"
         style="stop-color:#b2b2b2;stop-opacity:0.5;" />
      <stop
         id="stop3680"
         offset="1"
         style="stop-color:#b3b3b3;stop-opacity:0;" />
    </linearGradient>
    <linearGradient
       id="linearGradient3236">
      <stop
         id="stop3244"
         offset="0"
         style="stop-color:#f4f4f4;stop-opacity:1" />
      <stop
         id="stop3240"
         offset="1"
         style="stop-color:white;stop-opacity:1" />
    </linearGradient>
    <linearGradient
       id="linearGradient4671">
      <stop
         id="stop4673"
         offset="0"
         style="stop-color:#ffd43b;stop-opacity:1;" />
      <stop
         id="stop4675"
         offset="1"
         style="stop-color:#ffe873;stop-opacity:1" />
    </linearGradient>
    <linearGradient
       id="linearGradient4689">
      <stop
         id="stop4691"
         offset="0"
         style="stop-color:#5a9fd4;stop-opacity:1;" />
      <stop
         id="stop4693"
         offset="1"
         style="stop-color:#306998;stop-opacity:1;" />
    </linearGradient>
    <linearGradient
       gradientTransform="translate(100.2702,99.61116)"
       gradientUnits="userSpaceOnUse"
       xlink:href="#linearGradient4671"
       id="linearGradient2987"
       y2="144.75717"
       x2="-65.308502"
       y1="144.75717"
       x1="224.23996" />
    <linearGradient
       gradientTransform="translate(100.2702,99.61116)"
       gradientUnits="userSpaceOnUse"
       xlink:href="#linearGradient4689"
       id="linearGradient2990"
       y2="76.313133"
       x2="26.670298"
       y1="77.475983"
       x1="172.94208" />
    <linearGradient
       y2="144.75717"
       x2="-65.308502"
       y1="144.75717"
       x1="224.23996"
       gradientTransform="matrix(0.562541,0,0,0.567972,-11.5974,-7.60954)"
       gradientUnits="userSpaceOnUse"
       id="linearGradient2255"
       xlink:href="#linearGradient4671"
       inkscape:collect="always" />
    <linearGradient
       y2="76.313133"
       x2="26.670298"
       y1="76.176224"
       x1="172.94208"
       gradientTransform="matrix(0.562541,0,0,0.567972,-11.5974,-7.60954)"
       gradientUnits="userSpaceOnUse"
       id="linearGradient2258"
       xlink:href="#linearGradient4689"
       inkscape:collect="always" />
    <radialGradient
       gradientUnits="userSpaceOnUse"
       gradientTransform="matrix(1,0,0,0.177966,0,108.7434)"
       r="29.036913"
       fy="132.28575"
       fx="61.518883"
       cy="132.28575"
       cx="61.518883"
       id="radialGradient2801"
       xlink:href="#linearGradient2795"
       inkscape:collect="always" />
  </defs>
  <sodipodi:namedview
     id="base"
     pagecolor="#ffffff"
     bordercolor="#666666"
     borderopacity="1.0"
     inkscape:pageopacity="0.0"
     inkscape:pageshadow="2"
     inkscape:zoom="0.7"
     inkscape:cx="307.00849"
     inkscape:cy="360.59101"
     inkscape:document-units="px"
     inkscape:current-layer="layer1"
     showgrid="false"
     units="px"
     inkscape:window-width="1920"
     inkscape:window-height="1016"
     inkscape:window-x="0"
     inkscape:window-y="27"
     inkscape:window-maximized="1" />
  <metadata
     id="metadata4160">
    <rdf:RDF>
      <cc:Work
         rdf:about="">
        <dc:format>image/svg+xml</dc:format>
        <dc:type
           rdf:resource="http://purl.org/dc/dcmitype/StillImage" />
        <dc:title></dc:title>
      </cc:Work>
    </rdf:RDF>
  </metadata>
  <g
     inkscape:label="Layer 1"
     inkscape:groupmode="layer"
     id="layer1"
     transform="translate(0,-402.36216)">
    <rect
       style="fill:#1fa48e;fill-opacity:1;stroke:none;stroke-width:0.00531966;stroke-miterlimit:4;stroke-dasharray:none;stroke-opacity:1"
       id="rect4783"
       width="981.42853"
       height="711.42859"
       x="-27.142857"
       y="363.79074" />
    <g
       id="R-Multicolor"
       transform="matrix(5,0,0,5,175,452.36216)">
      <circle
         id="circle4463"
         style="fill:#fabc3d"
         r="55"
         cy="55"
         cx="55" />
      <g
         id="g4465">
        <path
           id="path4467"
           style="fill:#f0f1f1"
           d="m 87,79 c 0,4.418 -3.582,8 -8,8 l -48,0 c -4.418,0 -8,-3.582 -8,-8 l 0,-48 c 0,-4.418 3.582,-8 8,-8 l 48,0 c 4.418,0 8,3.582 8,8 l 0,48 z"
           inkscape:connector-curvature="0" />
        <path
           id="path4469"
           style="fill:#ffffff"
           d="m 79,23 -48,0 c -4.418,0 -8,3.582 -8,8 l 0,48 c 0,2.259 0.94,4.296 2.447,5.75 L 84.751,25.446 C 83.296,23.94 81.259,23 79,23 Z"
           inkscape:connector-curvature="0" />
        <path
           id="path4471"
           style="fill:#3e3e3f"
           d="m 41,72.5 c 0,2.209 -1.791,4 -4,4 -2.209,0 -4,-1.791 -4,-4 l 0,-36 c 0,-2.209 1.791,-4 4,-4 2.209,0 4,1.791 4,4 l 0,36 z"
           inkscape:connector-curvature="0" />
        <path
           id="path4473"
           style="fill:#3e3e3f"
           d="m 59,72.5 c 0,2.209 -1.791,4 -4,4 -2.209,0 -4,-1.791 -4,-4 l 0,-36 c 0,-2.209 1.791,-4 4,-4 2.209,0 4,1.791 4,4 l 0,36 z"
           inkscape:connector-curvature="0" />
        <path
           id="path4475"
           style="fill:#3e3e3f"
           d="m 77,72.5 c 0,2.209 -1.791,4 -4,4 -2.209,0 -4,-1.791 -4,-4 l 0,-36 c 0,-2.209 1.791,-4 4,-4 2.209,0 4,1.791 4,4 l 0,36 z"
           inkscape:connector-curvature="0" />
        <path
           id="path4477"
           style="fill:#17b198"
           d="m 44,47 c 0,-1.105 -1.045,-2 -2.333,-2 l -9.333,0 C 31.045,45 30,45.895 30,47 l 0,4 c 0,1.105 1.045,2 2.333,2 l 9.333,0 C 42.955,53 44,52.105 44,51 l 0,-4 z"
           inkscape:connector-curvature="0" />
        <path
           id="path4479"
           style="fill:#17b198"
           d="m 80,47 c 0,-1.105 -1.045,-2 -2.333,-2 l -9.333,0 C 67.045,45 66,45.895 66,47 l 0,4 c 0,1.105 1.045,2 2.333,2 l 9.333,0 C 78.955,53 80,52.105 80,51 l 0,-4 z"
           inkscape:connector-curvature="0" />
        <path
           id="path4481"
           style="fill:#fa5655"
           d="m 62,59 c 0,-1.105 -1.045,-2 -2.333,-2 l -9.333,0 C 49.045,57 48,57.895 48,59 l 0,4 c 0,1.105 1.045,2 2.333,2 l 9.333,0 C 60.955,65 62,64.105 62,63 l 0,-4 z"
           inkscape:connector-curvature="0" />
      </g>
    </g>
  </g>
</svg>
